<svg id="Ebene_1" data-name="Ebene 1" xmlns="http://www.w3.org/2000/svg" xmlns:xlink="http://www.w3.org/1999/xlink" viewBox="0 0 1836.11 983.96"><defs><style>.cls-1,.cls-11{fill:none;}.cls-2{clip-path:url(#clip-path);}.cls-3{fill:#fabc0f;}.cls-3,.cls-4,.cls-5,.cls-6,.cls-8,.cls-9{stroke:#fff;stroke-width:8.32px;}.cls-11,.cls-3,.cls-4,.cls-5,.cls-6,.cls-8,.cls-9{stroke-miterlimit:10;}.cls-4{fill:#ec7c18;}.cls-5{fill:#30b2c9;}.cls-6{fill:#adcf07;}.cls-7{fill:#004c6c;}.cls-8{fill:#0c8e7a;}.cls-9{fill:#eb6283;}.cls-10{fill:#e6e6e6;}.cls-11{stroke:#e6e6e6;stroke-linecap:round;stroke-width:1.66px;}</style><clipPath id="clip-path" transform="translate(344.76 296.12)"><polygon class="cls-1" points="1198 247.47 1.21 247.47 0.38 1.29 1196.34 1.29 1198 247.47"/></clipPath></defs><title>homebanner1</title><g class="cls-2"><rect class="cls-3" x="806.77" y="130.26" width="307.32" height="307.32" transform="translate(425.3 1058.41) rotate(-45)"/><rect class="cls-4" x="-79.26" y="-21.45" width="307.32" height="307.32" transform="translate(273.06 387.46) rotate(-45)"/><rect class="cls-5" x="166.93" y="66.08" width="510.21" height="510.21" transform="translate(241.25 688.62) rotate(-45)"/><rect class="cls-6" x="1207.93" y="31.02" width="109.61" height="520.37" transform="translate(508.7 1274.3) rotate(-45)"/><rect class="cls-7" x="-176.83" y="-34.54" width="109.61" height="520.37" transform="translate(149.46 275.93) rotate(-45)"/><rect class="cls-8" x="415.79" y="-327.69" width="109.61" height="520.37" transform="translate(530.33 609.11) rotate(-45)"/><rect class="cls-9" x="720.1" y="-39.36" width="156.88" height="220.51" transform="translate(528.52 881.54) rotate(-45)"/></g><polygon class="cls-10" points="1074.28 481.2 1047.04 481.2 1044.63 492.01 1028.26 481.2 1004.42 481.2 1004.42 456.25 1074.28 456.25 1074.28 481.2"/><polygon class="cls-10" points="1144.22 515.94 1116.99 515.94 1097.94 529.25 1098.21 515.94 1074.37 515.94 1074.37 491 1144.22 491 1144.22 515.94"/><path class="cls-10" d="M1060.06,108.37c-4.26-1.28-8.5-2.65-12.8-3.79a3.44,3.44,0,1,1,2.05-6.58c3,.95,5.9,1.93,8.85,2.9.19.06.39.1.8.21-.26-.31-.38-.47-.53-.62-3.32-3.32-6.65-6.63-9.95-10a1.06,1.06,0,0,0-1.49-.27,13.37,13.37,0,1,1,5.91-5.95,1.17,1.17,0,0,0,.29,1.67c1.26,1.17,2.44,2.42,3.84,3.81a4.26,4.26,0,0,1,1.22-3.73,3.85,3.85,0,0,1,3.59-.81c-.32-3.4,1.42-5.15,4.71-4.73-.29-1.77.67-2.7,2.29-3.7,1.42-.87,7,3.42,8.13,4.59,3.47,3.47,10.42,12.79,10.66,13l-19.93,19.93C1067.45,114.11,1060.41,108.48,1060.06,108.37ZM1051.29,84a11.74,11.74,0,0,0-3-15.09,11.94,11.94,0,0,0-16.41,17.2c4.14,4.69,10.78,5.1,14.71,2.52-.64-.64-1.3-1.24-1.89-1.9a1.36,1.36,0,0,0-1.62-.44A8.28,8.28,0,0,1,1037,71a8.06,8.06,0,0,1,9.29.91,8.3,8.3,0,0,1,2.7,8.5,1.74,1.74,0,0,0,.08,1.3A28.48,28.48,0,0,0,1051.29,84Zm-5-5a5.4,5.4,0,0,0-3.07-5.72,5.52,5.52,0,0,0-6.9,8,5.1,5.1,0,0,0,5.12,2.29c0-.06,0-.14-.05-.18l-3.21-3.23a3.29,3.29,0,1,1,4.64-4.65C1044,76.71,1045.06,77.83,1046.32,79.08Z" transform="translate(344.76 296.12)"/><g id="eqOFlo.tif"><path class="cls-10" d="M938.8,61.53h-5a.58.58,0,1,0,0,1.14h5c.42,0,.68-.21.69-.56S939.24,61.53,938.8,61.53Z" transform="translate(344.76 296.12)"/><path class="cls-10" d="M936,64.35a.93.93,0,0,0,.37,0,5.89,5.89,0,0,0,2.36-1.18h-4.87A5.88,5.88,0,0,0,936,64.35Z" transform="translate(344.76 296.12)"/><path class="cls-10" d="M939.32,60.86c.44,0,.69-.21.69-.58s-.25-.56-.68-.56h-6.11c-.4,0-.64.22-.64.57a.56.56,0,0,0,.63.58h6.11Z" transform="translate(344.76 296.12)"/><path class="cls-10" d="M941.16,57.8a1.32,1.32,0,0,0,.27-1.1c0-.2,0-.4-.08-.59a2.19,2.19,0,0,1,.39-1.62,19.25,19.25,0,0,0,2.84-6.22A7.43,7.43,0,0,0,944.5,44a8.81,8.81,0,0,0-1.76-2.85,8,8,0,0,0-8.67-2.73,9.64,9.64,0,0,0-5.9,4.94,5.25,5.25,0,0,0-.64,2.34A9,9,0,0,0,928,49a19.53,19.53,0,0,0,2.76,5.23,2.32,2.32,0,0,1,.43,2.14,1.51,1.51,0,0,0,.35,1.52A10.79,10.79,0,0,0,932.67,59a1.17,1.17,0,0,0,.68.22c1,0,2,0,3,0s2,0,3,0a1,1,0,0,0,.6-.18m2-10.47c-.79-2.53-7.42-8.38-4.63-8.46C941.21,40,945.21,48.06,942,48.58Z" transform="translate(344.76 296.12)"/><path class="cls-10" d="M936.3,60.86h-3.08a.56.56,0,0,1-.63-.58c0-.35.24-.56.64-.57h6.11c.43,0,.67.21.68.56s-.24.58-.69.58h-3Z" transform="translate(344.76 296.12)"/><path class="cls-10" d="M936.32,61.53h2.48c.43,0,.7.23.69.58s-.27.56-.69.56h-5a.58.58,0,1,1,0-1.14Z" transform="translate(344.76 296.12)"/><path class="cls-10" d="M933.89,63.61h4.87a5.89,5.89,0,0,1-2.36,1.18.93.93,0,0,1-.37,0A5.88,5.88,0,0,1,933.89,63.61Z" transform="translate(344.76 296.12)"/><line class="cls-11" x1="1281.74" y1="322.02" x2="1281.74" y2="329.44"/><line class="cls-11" x1="1268.88" y1="344.39" x2="1261.46" y2="344.39"/><line class="cls-11" x1="1300.61" y1="344.39" x2="1293.19" y2="344.39"/><line class="cls-11" x1="1273.67" y1="333.48" x2="1266.12" y2="325.93"/><line class="cls-11" x1="1289.72" y1="333.48" x2="1297.45" y2="325.76"/></g><rect class="cls-10" x="588.2" y="343.29" width="8.03" height="23.56"/><rect class="cls-10" x="600.24" y="333.87" width="8.52" height="32.97"/><rect class="cls-10" x="612.56" y="328.13" width="8.46" height="38.72"/><rect class="cls-10" x="625.06" y="343.29" width="8.03" height="23.56"/><rect class="cls-10" x="587.67" y="369.86" width="46.8" height="2.61"/></svg>